<?xml version="1.0" encoding="UTF-8" standalone="no"?>
<!DOCTYPE svg PUBLIC "-//W3C//DTD SVG 1.1//EN"
 "http://www.w3.org/Graphics/SVG/1.1/DTD/svg11.dtd">
<!-- Generated by graphviz version 2.38.0 (20140413.2041)
 -->
<!-- Title: godep Pages: 1 -->
<svg width="1228pt" height="190pt"
 viewBox="0.00 0.00 1227.84 190.00" xmlns="http://www.w3.org/2000/svg" xmlns:xlink="http://www.w3.org/1999/xlink">
<g id="graph0" class="graph" transform="scale(1 1) rotate(0) translate(4 186)">
<title>godep</title>
<polygon fill="white" stroke="none" points="-4,4 -4,-186 1223.84,-186 1223.84,4 -4,4"/>
<!-- 0 -->
<g id="node1" class="node"><title>0</title>
<ellipse fill="paleturquoise" stroke="paleturquoise" cx="357.857" cy="-164" rx="107.728" ry="18"/>
<text text-anchor="middle" x="357.857" y="-159.8" font-family="Times,serif" font-size="14.00">github.com/unders/docit/cli</text>
</g>
<!-- 1 -->
<g id="node2" class="node"><title>1</title>
<ellipse fill="paleturquoise" stroke="paleturquoise" cx="357.857" cy="-110" rx="129.444" ry="18"/>
<text text-anchor="middle" x="357.857" y="-105.8" font-family="Times,serif" font-size="14.00">github.com/unders/docit/template</text>
</g>
<!-- 2 -->
<g id="node3" class="node"><title>2</title>
<ellipse fill="paleturquoise" stroke="paleturquoise" cx="695.023" cy="-91" rx="119.771" ry="18"/>
<text text-anchor="middle" x="695.023" y="-86.8" font-family="Times,serif" font-size="14.00">github.com/GeertJohan/go.rice</text>
</g>
<!-- 1&#45;&gt;2 -->
<g id="edge1" class="edge"><title>1&#45;&gt;2</title>
<path fill="none" stroke="black" d="M477.968,-103.248C508.65,-101.508 541.704,-99.6347 572.507,-97.8886"/>
<polygon fill="black" stroke="black" points="573.074,-101.362 582.86,-97.3017 572.678,-94.3733 573.074,-101.362"/>
</g>
<!-- 5 -->
<g id="node6" class="node"><title>5</title>
<ellipse fill="paleturquoise" stroke="paleturquoise" cx="1061.4" cy="-145" rx="110.108" ry="18"/>
<text text-anchor="middle" x="1061.4" y="-140.8" font-family="Times,serif" font-size="14.00">github.com/daaku/go.zipexe</text>
</g>
<!-- 2&#45;&gt;5 -->
<g id="edge8" class="edge"><title>2&#45;&gt;5</title>
<path fill="none" stroke="black" d="M780.994,-103.592C837.335,-111.942 911.218,-122.891 968.857,-131.433"/>
<polygon fill="black" stroke="black" points="968.652,-134.941 979.057,-132.945 969.678,-128.017 968.652,-134.941"/>
</g>
<!-- 7 -->
<g id="node8" class="node"><title>7</title>
<ellipse fill="paleturquoise" stroke="paleturquoise" cx="1061.4" cy="-91" rx="158.367" ry="18"/>
<text text-anchor="middle" x="1061.4" y="-86.8" font-family="Times,serif" font-size="14.00">github.com/GeertJohan/go.rice/embedded</text>
</g>
<!-- 2&#45;&gt;7 -->
<g id="edge7" class="edge"><title>2&#45;&gt;7</title>
<path fill="none" stroke="black" d="M814.83,-91C839.691,-91 866.351,-91 892.609,-91"/>
<polygon fill="black" stroke="black" points="892.649,-94.5001 902.649,-91 892.649,-87.5001 892.649,-94.5001"/>
</g>
<!-- 8 -->
<g id="node9" class="node"><title>8</title>
<ellipse fill="paleturquoise" stroke="paleturquoise" cx="1061.4" cy="-37" rx="108.212" ry="18"/>
<text text-anchor="middle" x="1061.4" y="-32.8" font-family="Times,serif" font-size="14.00">github.com/kardianos/osext</text>
</g>
<!-- 2&#45;&gt;8 -->
<g id="edge9" class="edge"><title>2&#45;&gt;8</title>
<path fill="none" stroke="black" d="M780.994,-78.4076C837.632,-70.0139 911.999,-58.993 969.769,-50.4315"/>
<polygon fill="black" stroke="black" points="970.61,-53.8453 979.988,-48.9171 969.583,-46.9209 970.61,-53.8453"/>
</g>
<!-- 3 -->
<g id="node4" class="node"><title>3</title>
<ellipse fill="paleturquoise" stroke="paleturquoise" cx="96.3177" cy="-87" rx="96.1357" ry="18"/>
<text text-anchor="middle" x="96.3177" y="-82.8" font-family="Times,serif" font-size="14.00">github.com/unders/docit</text>
</g>
<!-- 3&#45;&gt;0 -->
<g id="edge4" class="edge"><title>3&#45;&gt;0</title>
<path fill="none" stroke="black" d="M135.846,-103.496C161.731,-114.124 196.803,-127.651 228.635,-137 243.317,-141.312 259.136,-145.222 274.481,-148.644"/>
<polygon fill="black" stroke="black" points="273.964,-152.113 284.48,-150.821 275.453,-145.274 273.964,-152.113"/>
</g>
<!-- 3&#45;&gt;1 -->
<g id="edge5" class="edge"><title>3&#45;&gt;1</title>
<path fill="none" stroke="black" d="M183.74,-94.6587C201.159,-96.2023 219.755,-97.8503 238.058,-99.4722"/>
<polygon fill="black" stroke="black" points="237.917,-102.973 248.187,-100.37 238.535,-96.0007 237.917,-102.973"/>
</g>
<!-- 3&#45;&gt;2 -->
<g id="edge2" class="edge"><title>3&#45;&gt;2</title>
<path fill="none" stroke="black" d="M191.279,-83.7905C203.837,-83.4633 216.548,-83.184 228.635,-83 343.486,-81.2512 372.236,-80.7811 487.078,-83 513.972,-83.5196 542.821,-84.4188 570.185,-85.4312"/>
<polygon fill="black" stroke="black" points="570.068,-88.9292 580.193,-85.8089 570.332,-81.9342 570.068,-88.9292"/>
</g>
<!-- 4 -->
<g id="node5" class="node"><title>4</title>
<ellipse fill="paleturquoise" stroke="paleturquoise" cx="357.857" cy="-18" rx="123.648" ry="18"/>
<text text-anchor="middle" x="357.857" y="-13.8" font-family="Times,serif" font-size="14.00">github.com/russross/blackfriday</text>
</g>
<!-- 3&#45;&gt;4 -->
<g id="edge3" class="edge"><title>3&#45;&gt;4</title>
<path fill="none" stroke="black" d="M149.301,-71.9649C173.39,-65.0977 202.424,-56.9618 228.635,-50 246.41,-45.2791 265.624,-40.3774 283.634,-35.8708"/>
<polygon fill="black" stroke="black" points="284.642,-39.2266 293.499,-33.4114 282.949,-32.4345 284.642,-39.2266"/>
</g>
<!-- 6 -->
<g id="node7" class="node"><title>6</title>
<ellipse fill="paleturquoise" stroke="paleturquoise" cx="695.023" cy="-18" rx="171.89" ry="18"/>
<text text-anchor="middle" x="695.023" y="-13.8" font-family="Times,serif" font-size="14.00">github.com/shurcooL/sanitized_anchor_name</text>
</g>
<!-- 4&#45;&gt;6 -->
<g id="edge6" class="edge"><title>4&#45;&gt;6</title>
<path fill="none" stroke="black" d="M481.757,-18C491.951,-18 502.383,-18 512.886,-18"/>
<polygon fill="black" stroke="black" points="512.973,-21.5001 522.973,-18 512.973,-14.5001 512.973,-21.5001"/>
</g>
</g>
</svg>
