<?xml version="1.0" encoding="UTF-8" standalone="no"?>
<!DOCTYPE svg PUBLIC "-//W3C//DTD SVG 1.1//EN"
 "http://www.w3.org/Graphics/SVG/1.1/DTD/svg11.dtd">
<!-- Generated by graphviz version 2.38.0 (20140413.2041)
 -->
<!-- Title: godep Pages: 1 -->
<svg width="1584pt" height="282pt"
 viewBox="0.00 0.00 1584.17 282.00" xmlns="http://www.w3.org/2000/svg" xmlns:xlink="http://www.w3.org/1999/xlink">
<g id="graph0" class="graph" transform="scale(1 1) rotate(0) translate(4 278)">
<title>godep</title>
<polygon fill="white" stroke="none" points="-4,4 -4,-278 1580.17,-278 1580.17,4 -4,4"/>
<!-- 0 -->
<g id="node1" class="node"><title>0</title>
<ellipse fill="paleturquoise" stroke="paleturquoise" cx="1417.73" cy="-199" rx="108.212" ry="18"/>
<text text-anchor="middle" x="1417.73" y="-194.8" font-family="Times,serif" font-size="14.00">github.com/kardianos/osext</text>
</g>
<!-- 1 -->
<g id="node2" class="node"><title>1</title>
<ellipse fill="paleturquoise" stroke="paleturquoise" cx="388.8" cy="-256" rx="160.33" ry="18"/>
<text text-anchor="middle" x="388.8" y="-251.8" font-family="Times,serif" font-size="14.00">github.com/unders/docit/handler/members</text>
</g>
<!-- 2 -->
<g id="node3" class="node"><title>2</title>
<ellipse fill="paleturquoise" stroke="paleturquoise" cx="714.187" cy="-164" rx="129.444" ry="18"/>
<text text-anchor="middle" x="714.187" y="-159.8" font-family="Times,serif" font-size="14.00">github.com/unders/docit/template</text>
</g>
<!-- 1&#45;&gt;2 -->
<g id="edge1" class="edge"><title>1&#45;&gt;2</title>
<path fill="none" stroke="black" d="M477.107,-240.929C500.609,-236.199 525.904,-230.491 548.965,-224 587.626,-213.119 630.192,-197.458 662.299,-184.865"/>
<polygon fill="black" stroke="black" points="663.899,-187.995 671.911,-181.063 661.325,-181.486 663.899,-187.995"/>
</g>
<!-- 8 -->
<g id="node9" class="node"><title>8</title>
<ellipse fill="paleturquoise" stroke="paleturquoise" cx="1051.35" cy="-145" rx="119.771" ry="18"/>
<text text-anchor="middle" x="1051.35" y="-140.8" font-family="Times,serif" font-size="14.00">github.com/GeertJohan/go.rice</text>
</g>
<!-- 2&#45;&gt;8 -->
<g id="edge16" class="edge"><title>2&#45;&gt;8</title>
<path fill="none" stroke="black" d="M834.298,-157.248C864.98,-155.508 898.034,-153.635 928.837,-151.889"/>
<polygon fill="black" stroke="black" points="929.404,-155.362 939.19,-151.302 929.008,-148.373 929.404,-155.362"/>
</g>
<!-- 3 -->
<g id="node4" class="node"><title>3</title>
<ellipse fill="paleturquoise" stroke="paleturquoise" cx="388.8" cy="-72" rx="141.989" ry="18"/>
<text text-anchor="middle" x="388.8" y="-67.8" font-family="Times,serif" font-size="14.00">github.com/unders/docit/handler/root</text>
</g>
<!-- 3&#45;&gt;2 -->
<g id="edge4" class="edge"><title>3&#45;&gt;2</title>
<path fill="none" stroke="black" d="M447.615,-88.4478C503.431,-104.327 587.884,-128.353 646.51,-145.031"/>
<polygon fill="black" stroke="black" points="645.839,-148.479 656.415,-147.849 647.754,-141.746 645.839,-148.479"/>
</g>
<!-- 4 -->
<g id="node5" class="node"><title>4</title>
<ellipse fill="paleturquoise" stroke="paleturquoise" cx="714.187" cy="-72" rx="123.648" ry="18"/>
<text text-anchor="middle" x="714.187" y="-67.8" font-family="Times,serif" font-size="14.00">github.com/russross/blackfriday</text>
</g>
<!-- 3&#45;&gt;4 -->
<g id="edge2" class="edge"><title>3&#45;&gt;4</title>
<path fill="none" stroke="black" d="M531.172,-72C547.499,-72 564.106,-72 580.314,-72"/>
<polygon fill="black" stroke="black" points="580.348,-75.5001 590.348,-72 580.348,-68.5001 580.348,-75.5001"/>
</g>
<!-- 5 -->
<g id="node6" class="node"><title>5</title>
<ellipse fill="paleturquoise" stroke="paleturquoise" cx="714.187" cy="-18" rx="107.728" ry="18"/>
<text text-anchor="middle" x="714.187" y="-13.8" font-family="Times,serif" font-size="14.00">github.com/unders/docit/cli</text>
</g>
<!-- 3&#45;&gt;5 -->
<g id="edge3" class="edge"><title>3&#45;&gt;5</title>
<path fill="none" stroke="black" d="M475.613,-57.6708C522.507,-49.8403 580.414,-40.1709 627.317,-32.3388"/>
<polygon fill="black" stroke="black" points="628.168,-35.7453 637.455,-30.6459 627.015,-28.8409 628.168,-35.7453"/>
</g>
<!-- 6 -->
<g id="node7" class="node"><title>6</title>
<ellipse fill="paleturquoise" stroke="paleturquoise" cx="1051.35" cy="-72" rx="171.89" ry="18"/>
<text text-anchor="middle" x="1051.35" y="-67.8" font-family="Times,serif" font-size="14.00">github.com/shurcooL/sanitized_anchor_name</text>
</g>
<!-- 4&#45;&gt;6 -->
<g id="edge5" class="edge"><title>4&#45;&gt;6</title>
<path fill="none" stroke="black" d="M838.087,-72C848.281,-72 858.713,-72 869.216,-72"/>
<polygon fill="black" stroke="black" points="869.303,-75.5001 879.303,-72 869.303,-68.5001 869.303,-75.5001"/>
</g>
<!-- 7 -->
<g id="node8" class="node"><title>7</title>
<ellipse fill="paleturquoise" stroke="paleturquoise" cx="96.3177" cy="-141" rx="96.1357" ry="18"/>
<text text-anchor="middle" x="96.3177" y="-136.8" font-family="Times,serif" font-size="14.00">github.com/unders/docit</text>
</g>
<!-- 7&#45;&gt;1 -->
<g id="edge8" class="edge"><title>7&#45;&gt;1</title>
<path fill="none" stroke="black" d="M119.641,-158.734C144.715,-177.755 187.326,-207.451 228.635,-224 244.383,-230.309 261.524,-235.42 278.532,-239.548"/>
<polygon fill="black" stroke="black" points="277.987,-243.014 288.52,-241.866 279.57,-236.195 277.987,-243.014"/>
</g>
<!-- 7&#45;&gt;2 -->
<g id="edge11" class="edge"><title>7&#45;&gt;2</title>
<path fill="none" stroke="black" d="M131.162,-157.812C157.114,-169.723 194.206,-184.667 228.635,-191 367.69,-216.577 532.651,-197.02 629.803,-180.511"/>
<polygon fill="black" stroke="black" points="630.601,-183.925 639.858,-178.772 629.408,-177.027 630.601,-183.925"/>
</g>
<!-- 7&#45;&gt;3 -->
<g id="edge10" class="edge"><title>7&#45;&gt;3</title>
<path fill="none" stroke="black" d="M147.904,-125.774C172.204,-118.709 201.81,-110.466 228.635,-104 250.953,-98.6208 275.18,-93.4253 297.844,-88.8411"/>
<polygon fill="black" stroke="black" points="298.674,-92.2445 307.791,-86.8476 297.298,-85.3809 298.674,-92.2445"/>
</g>
<!-- 7&#45;&gt;5 -->
<g id="edge7" class="edge"><title>7&#45;&gt;5</title>
<path fill="none" stroke="black" d="M114.462,-123.248C137.823,-100.392 182.101,-61.6426 228.635,-45 355.764,0.466125 513.599,-0.408585 613.885,-7.4238"/>
<polygon fill="black" stroke="black" points="613.781,-10.9255 624.01,-8.16668 614.293,-3.94426 613.781,-10.9255"/>
</g>
<!-- 7&#45;&gt;8 -->
<g id="edge6" class="edge"><title>7&#45;&gt;8</title>
<path fill="none" stroke="black" d="M191.279,-137.791C203.837,-137.463 216.548,-137.184 228.635,-137 501.836,-132.84 570.227,-131.722 843.409,-137 870.302,-137.52 899.151,-138.419 926.515,-139.431"/>
<polygon fill="black" stroke="black" points="926.398,-142.929 936.523,-139.809 926.662,-135.934 926.398,-142.929"/>
</g>
<!-- 9 -->
<g id="node10" class="node"><title>9</title>
<ellipse fill="paleturquoise" stroke="paleturquoise" cx="388.8" cy="-164" rx="155.987" ry="18"/>
<text text-anchor="middle" x="388.8" y="-159.8" font-family="Times,serif" font-size="14.00">github.com/unders/docit/handler/projects</text>
</g>
<!-- 7&#45;&gt;9 -->
<g id="edge9" class="edge"><title>7&#45;&gt;9</title>
<path fill="none" stroke="black" d="M185.26,-147.963C205.678,-149.58 227.895,-151.339 249.888,-153.08"/>
<polygon fill="black" stroke="black" points="249.724,-156.578 259.969,-153.879 250.277,-149.6 249.724,-156.578"/>
</g>
<!-- 8&#45;&gt;0 -->
<g id="edge14" class="edge"><title>8&#45;&gt;0</title>
<path fill="none" stroke="black" d="M1137.32,-157.592C1193.96,-165.986 1268.33,-177.007 1326.1,-185.569"/>
<polygon fill="black" stroke="black" points="1325.91,-189.079 1336.32,-187.083 1326.94,-182.155 1325.91,-189.079"/>
</g>
<!-- 10 -->
<g id="node11" class="node"><title>10</title>
<ellipse fill="paleturquoise" stroke="paleturquoise" cx="1417.73" cy="-145" rx="158.367" ry="18"/>
<text text-anchor="middle" x="1417.73" y="-140.8" font-family="Times,serif" font-size="14.00">github.com/GeertJohan/go.rice/embedded</text>
</g>
<!-- 8&#45;&gt;10 -->
<g id="edge12" class="edge"><title>8&#45;&gt;10</title>
<path fill="none" stroke="black" d="M1171.16,-145C1196.02,-145 1222.68,-145 1248.94,-145"/>
<polygon fill="black" stroke="black" points="1248.98,-148.5 1258.98,-145 1248.98,-141.5 1248.98,-148.5"/>
</g>
<!-- 11 -->
<g id="node12" class="node"><title>11</title>
<ellipse fill="paleturquoise" stroke="paleturquoise" cx="1417.73" cy="-91" rx="110.108" ry="18"/>
<text text-anchor="middle" x="1417.73" y="-86.8" font-family="Times,serif" font-size="14.00">github.com/daaku/go.zipexe</text>
</g>
<!-- 8&#45;&gt;11 -->
<g id="edge13" class="edge"><title>8&#45;&gt;11</title>
<path fill="none" stroke="black" d="M1137.32,-132.408C1193.67,-124.058 1267.55,-113.109 1325.19,-104.567"/>
<polygon fill="black" stroke="black" points="1326.01,-107.983 1335.39,-103.055 1324.98,-101.059 1326.01,-107.983"/>
</g>
<!-- 9&#45;&gt;2 -->
<g id="edge15" class="edge"><title>9&#45;&gt;2</title>
<path fill="none" stroke="black" d="M544.863,-164C554.729,-164 564.627,-164 574.411,-164"/>
<polygon fill="black" stroke="black" points="574.559,-167.5 584.559,-164 574.559,-160.5 574.559,-167.5"/>
</g>
</g>
</svg>
