<?xml version="1.0" encoding="UTF-8" standalone="no"?>
<!DOCTYPE svg PUBLIC "-//W3C//DTD SVG 1.1//EN"
 "http://www.w3.org/Graphics/SVG/1.1/DTD/svg11.dtd">
<!-- Generated by graphviz version 2.38.0 (20140413.2041)
 -->
<!-- Title: godep Pages: 1 -->
<svg width="555pt" height="206pt"
 viewBox="0.00 0.00 555.25 206.00" xmlns="http://www.w3.org/2000/svg" xmlns:xlink="http://www.w3.org/1999/xlink">
<g id="graph0" class="graph" transform="scale(1 1) rotate(0) translate(4 202)">
<title>godep</title>
<polygon fill="white" stroke="none" points="-4,4 -4,-202 551.247,-202 551.247,4 -4,4"/>
<!-- 0 -->
<g id="node1" class="node"><title>0</title>
<ellipse fill="paleturquoise" stroke="paleturquoise" cx="96.3177" cy="-99" rx="96.1357" ry="18"/>
<text text-anchor="middle" x="96.3177" y="-94.8" font-family="Times,serif" font-size="14.00">github.com/unders/docit</text>
</g>
<!-- 1 -->
<g id="node2" class="node"><title>1</title>
<ellipse fill="palegreen" stroke="palegreen" cx="513.555" cy="-180" rx="27" ry="18"/>
<text text-anchor="middle" x="513.555" y="-175.8" font-family="Times,serif" font-size="14.00">fmt</text>
</g>
<!-- 0&#45;&gt;1 -->
<g id="edge1" class="edge"><title>0&#45;&gt;1</title>
<path fill="none" stroke="black" d="M130.673,-115.941C156.676,-128.345 194.057,-144.447 228.635,-153 315.604,-174.511 421.468,-179.102 476.072,-179.946"/>
<polygon fill="black" stroke="black" points="476.247,-183.448 486.288,-180.068 476.331,-176.448 476.247,-183.448"/>
</g>
<!-- 2 -->
<g id="node3" class="node"><title>2</title>
<ellipse fill="paleturquoise" stroke="paleturquoise" cx="336.249" cy="-126" rx="107.728" ry="18"/>
<text text-anchor="middle" x="336.249" y="-121.8" font-family="Times,serif" font-size="14.00">github.com/unders/docit/cli</text>
</g>
<!-- 0&#45;&gt;2 -->
<g id="edge2" class="edge"><title>0&#45;&gt;2</title>
<path fill="none" stroke="black" d="M179.2,-108.292C197.744,-110.396 217.624,-112.652 236.774,-114.825"/>
<polygon fill="black" stroke="black" points="236.379,-118.303 246.71,-115.953 237.169,-111.347 236.379,-118.303"/>
</g>
<!-- 3 -->
<g id="node4" class="node"><title>3</title>
<ellipse fill="palegreen" stroke="palegreen" cx="336.249" cy="-72" rx="27" ry="18"/>
<text text-anchor="middle" x="336.249" y="-67.8" font-family="Times,serif" font-size="14.00">log</text>
</g>
<!-- 0&#45;&gt;3 -->
<g id="edge3" class="edge"><title>0&#45;&gt;3</title>
<path fill="none" stroke="black" d="M179.2,-89.7081C220.142,-85.0622 267.594,-79.6774 299.323,-76.0768"/>
<polygon fill="black" stroke="black" points="299.907,-79.5331 309.449,-74.9278 299.118,-72.5777 299.907,-79.5331"/>
</g>
<!-- 4 -->
<g id="node5" class="node"><title>4</title>
<ellipse fill="palegreen" stroke="palegreen" cx="336.249" cy="-18" rx="37.2507" ry="18"/>
<text text-anchor="middle" x="336.249" y="-13.8" font-family="Times,serif" font-size="14.00">net/http</text>
</g>
<!-- 0&#45;&gt;4 -->
<g id="edge4" class="edge"><title>0&#45;&gt;4</title>
<path fill="none" stroke="black" d="M133.866,-82.3309C159.924,-70.8529 195.984,-55.7873 228.635,-45 249.169,-38.2162 272.401,-32.1502 291.925,-27.4947"/>
<polygon fill="black" stroke="black" points="292.824,-30.879 301.763,-25.1923 291.229,-24.0632 292.824,-30.879"/>
</g>
<!-- 2&#45;&gt;1 -->
<g id="edge6" class="edge"><title>2&#45;&gt;1</title>
<path fill="none" stroke="black" d="M388.426,-141.764C417.69,-150.778 453.556,-161.826 479.196,-169.724"/>
<polygon fill="black" stroke="black" points="478.24,-173.092 488.827,-172.691 480.301,-166.402 478.24,-173.092"/>
</g>
<!-- 5 -->
<g id="node6" class="node"><title>5</title>
<ellipse fill="palegreen" stroke="palegreen" cx="513.555" cy="-126" rx="27" ry="18"/>
<text text-anchor="middle" x="513.555" y="-121.8" font-family="Times,serif" font-size="14.00">flag</text>
</g>
<!-- 2&#45;&gt;5 -->
<g id="edge5" class="edge"><title>2&#45;&gt;5</title>
<path fill="none" stroke="black" d="M444.024,-126C455.575,-126 466.659,-126 476.422,-126"/>
<polygon fill="black" stroke="black" points="476.457,-129.5 486.457,-126 476.457,-122.5 476.457,-129.5"/>
</g>
<!-- 6 -->
<g id="node7" class="node"><title>6</title>
<ellipse fill="palegreen" stroke="palegreen" cx="513.555" cy="-72" rx="27" ry="18"/>
<text text-anchor="middle" x="513.555" y="-67.8" font-family="Times,serif" font-size="14.00">os</text>
</g>
<!-- 2&#45;&gt;6 -->
<g id="edge7" class="edge"><title>2&#45;&gt;6</title>
<path fill="none" stroke="black" d="M400.202,-111.463C414.646,-107.74 429.867,-103.503 443.863,-99 456.252,-95.0142 469.622,-89.9413 481.246,-85.2713"/>
<polygon fill="black" stroke="black" points="482.604,-88.4971 490.538,-81.4759 479.957,-82.0168 482.604,-88.4971"/>
</g>
<!-- 7 -->
<g id="node8" class="node"><title>7</title>
<ellipse fill="palegreen" stroke="palegreen" cx="513.555" cy="-18" rx="33.8857" ry="18"/>
<text text-anchor="middle" x="513.555" y="-13.8" font-family="Times,serif" font-size="14.00">strings</text>
</g>
<!-- 2&#45;&gt;7 -->
<g id="edge8" class="edge"><title>2&#45;&gt;7</title>
<path fill="none" stroke="black" d="M414.803,-113.613C425.119,-109.937 435.132,-105.173 443.863,-99 467.415,-82.3482 460.537,-66.4124 479.863,-45 481.589,-43.0874 483.454,-41.1931 485.389,-39.3479"/>
<polygon fill="black" stroke="black" points="487.896,-41.8014 493.04,-32.539 483.243,-36.572 487.896,-41.8014"/>
</g>
</g>
</svg>
